<?xml version="1.0" encoding="UTF-8"?>
<svg id="Calque_1" xmlns="http://www.w3.org/2000/svg" version="1.1" viewBox="280 140 280 310">
  <!-- Generator: Adobe Illustrator 29.8.1, SVG Export Plug-In . SVG Version: 2.1.1 Build 2)  -->
  <defs>
    <style>
      .st0 {
        fill: #204999;
      }

      .st1 {
        fill: #fff;
      }

      .st2 {
        fill: #ffcc0b;
      }
    </style>
  </defs>
  <path class="st0" d="M516.65,140.19c2.81.97,5.83,1.13,8.72,1.87,21.23,5.41,37.87,24.4,40.63,46.14,1.09,71.6.17,143.34.46,215-1.5,27.02-22.73,49.27-49.61,52.1h-190.97c-21.23-2.15-39.49-16.26-46.72-36.31-1.5-4.16-2.07-8.46-3.31-12.67v-216.72c3.17-25.28,24.13-46.97,49.82-49.4h190.98Z"/>
  <path class="st2" d="M382.9,324.78s41.43,41.74,84.74,0v13.18s-37.98,39.55-84.74,0v-13.18Z"/>
  <path class="st1" d="M384.42,299.02c0-6.44,1.73-11.49,5.19-15.13,3.46-3.64,7.93-5.47,13.4-5.47,3.58,0,6.81.86,9.69,2.57,2.88,1.71,5.07,4.1,6.58,7.16,1.51,3.06,2.26,6.54,2.26,10.42s-.79,7.46-2.38,10.57c-1.59,3.11-3.84,5.46-6.75,7.06-2.91,1.6-6.06,2.4-9.43,2.4-3.65,0-6.92-.88-9.8-2.65-2.88-1.77-5.06-4.17-6.54-7.23-1.48-3.05-2.22-6.28-2.22-9.69ZM389.72,299.1c0,4.68,1.26,8.36,3.77,11.05,2.52,2.69,5.67,4.04,9.47,4.04s7.05-1.36,9.55-4.08c2.5-2.72,3.75-6.58,3.75-11.57,0-3.16-.53-5.92-1.6-8.27-1.07-2.36-2.63-4.18-4.69-5.48-2.06-1.3-4.37-1.95-6.92-1.95-3.64,0-6.77,1.25-9.39,3.75-2.62,2.5-3.93,6.67-3.93,12.51Z"/>
  <path class="st1" d="M427.52,299.02c0-6.44,1.73-11.49,5.19-15.13,3.46-3.64,7.93-5.47,13.4-5.47,3.58,0,6.81.86,9.69,2.57,2.88,1.71,5.07,4.1,6.58,7.16,1.51,3.06,2.26,6.54,2.26,10.42s-.79,7.46-2.38,10.57c-1.59,3.11-3.84,5.46-6.75,7.06-2.91,1.6-6.06,2.4-9.43,2.4-3.65,0-6.92-.88-9.8-2.65-2.88-1.77-5.06-4.17-6.54-7.23-1.48-3.05-2.22-6.28-2.22-9.69ZM432.82,299.1c0,4.68,1.26,8.36,3.77,11.05,2.52,2.69,5.67,4.04,9.47,4.04s7.05-1.36,9.55-4.08c2.5-2.72,3.75-6.58,3.75-11.57,0-3.16-.53-5.92-1.6-8.27-1.07-2.36-2.63-4.18-4.69-5.48-2.06-1.3-4.37-1.95-6.92-1.95-3.64,0-6.77,1.25-9.39,3.75-2.62,2.5-3.93,6.67-3.93,12.51Z"/>
  <g>
    <path class="st2" d="M343.75,205.86c-.42.52-.84.93-1.23,1.23-.4.31-.97.46-1.72.46s-1.54-.29-2.36-.88c-.82-.59-1.85-1.22-3.09-1.9-1.25-.68-2.75-1.31-4.5-1.9-1.76-.59-3.93-.88-6.51-.88-3.38,0-6.36.61-8.94,1.83-2.58,1.22-4.73,2.96-6.44,5.21-1.71,2.25-3.02,5-3.91,8.23-.89,3.24-1.34,6.87-1.34,10.91s.47,7.89,1.41,11.15c.94,3.26,2.27,6.01,4.01,8.23,1.74,2.23,3.85,3.92,6.33,5.07,2.49,1.15,5.25,1.72,8.3,1.72s5.4-.36,7.32-1.09c1.92-.73,3.52-1.51,4.79-2.36,1.27-.84,2.32-1.63,3.17-2.36.85-.73,1.71-1.09,2.6-1.09,1.13,0,1.99.42,2.61,1.27l3.94,5.07c-1.64,2.02-3.48,3.73-5.52,5.14-2.04,1.41-4.21,2.56-6.51,3.45-2.3.89-4.7,1.55-7.21,1.97s-5.06.63-7.63.63c-4.46,0-8.62-.82-12.49-2.46-3.87-1.64-7.22-4.03-10.06-7.18s-5.08-7-6.72-11.58c-1.64-4.57-2.46-9.77-2.46-15.59,0-5.3.74-10.2,2.21-14.71,1.48-4.5,3.66-8.39,6.55-11.65,2.89-3.26,6.44-5.82,10.66-7.67,4.22-1.85,9.06-2.78,14.5-2.78,5.11,0,9.62.82,13.51,2.46,3.89,1.64,7.37,3.96,10.42,6.97l-3.66,5.07Z"/>
    <path class="st2" d="M359.16,202.48c3.99-3.8,8.32-6.64,12.99-8.51,4.67-1.88,9.79-2.82,15.38-2.82,4.08,0,7.69.67,10.84,2.01,3.14,1.34,5.79,3.2,7.95,5.59,2.16,2.39,3.79,5.25,4.89,8.59,1.1,3.33,1.65,7.01,1.65,11.05v45.6h-6.12c-1.36,0-2.39-.22-3.09-.67-.7-.44-1.27-1.28-1.69-2.5l-1.48-6.26c-1.83,1.69-3.64,3.18-5.42,4.47-1.78,1.29-3.65,2.39-5.6,3.31-1.95.91-4.02,1.61-6.23,2.08-2.21.47-4.65.7-7.32.7-2.81,0-5.45-.39-7.92-1.16-2.46-.77-4.61-1.96-6.44-3.55-1.83-1.59-3.27-3.59-4.33-5.98-1.06-2.39-1.58-5.18-1.58-8.37,0-2.82.76-5.52,2.29-8.13,1.52-2.6,4.01-4.94,7.46-7,3.45-2.06,7.95-3.75,13.51-5.07,5.56-1.31,12.4-2.06,20.51-2.25v-5.21c0-5.39-1.15-9.43-3.45-12.1-2.3-2.67-5.68-4.01-10.13-4.01-3,0-5.52.38-7.56,1.13-2.04.75-3.8,1.58-5.28,2.5-1.48.91-2.77,1.75-3.87,2.5-1.1.75-2.24,1.13-3.41,1.13-.94,0-1.75-.26-2.43-.77-.68-.52-1.23-1.13-1.66-1.83l-2.46-4.43ZM399.41,232.25c-5.58.19-10.32.62-14.22,1.3-3.89.68-7.06,1.58-9.5,2.71-2.44,1.13-4.2,2.45-5.28,3.98-1.08,1.53-1.62,3.23-1.62,5.1s.29,3.32.88,4.61c.59,1.29,1.38,2.35,2.39,3.17,1.01.82,2.19,1.42,3.55,1.79s2.84.56,4.43.56c2.11,0,4.05-.21,5.8-.63,1.76-.42,3.41-1.02,4.96-1.79,1.55-.77,3.03-1.72,4.43-2.85,1.41-1.13,2.79-2.41,4.15-3.87v-14.07Z"/>
    <path class="st2" d="M473.44,204.8c-.38.61-.78,1.04-1.2,1.3-.42.26-.96.39-1.62.39-.75,0-1.58-.26-2.5-.77-.91-.52-2.02-1.08-3.31-1.69-1.29-.61-2.8-1.17-4.54-1.69-1.74-.52-3.8-.77-6.19-.77-1.97,0-3.76.25-5.38.74-1.62.49-2.99,1.17-4.12,2.04-1.13.87-1.99,1.9-2.6,3.1-.61,1.2-.91,2.47-.91,3.84,0,1.78.53,3.26,1.58,4.43,1.05,1.17,2.44,2.18,4.15,3.03,1.71.84,3.66,1.61,5.84,2.29,2.18.68,4.41,1.4,6.68,2.15,2.28.75,4.5,1.61,6.69,2.57,2.18.96,4.13,2.16,5.84,3.59,1.71,1.43,3.09,3.16,4.15,5.17,1.06,2.02,1.58,4.48,1.58,7.39,0,3.33-.6,6.42-1.79,9.25s-2.96,5.29-5.28,7.35c-2.32,2.06-5.2,3.68-8.62,4.85-3.43,1.17-7.34,1.76-11.75,1.76-4.93,0-9.48-.82-13.65-2.46-4.18-1.64-7.67-3.73-10.49-6.26l3.24-5.28c.37-.66.84-1.16,1.41-1.51.56-.35,1.31-.53,2.25-.53.89,0,1.8.33,2.74.99.94.66,2.06,1.37,3.38,2.15,1.31.77,2.91,1.48,4.79,2.11,1.87.63,4.22.95,7.04.95,2.34,0,4.38-.29,6.12-.88,1.74-.59,3.18-1.38,4.33-2.39,1.15-1.01,2.01-2.17,2.57-3.48.56-1.31.85-2.7.85-4.15,0-1.88-.53-3.44-1.58-4.68-1.06-1.24-2.44-2.31-4.15-3.2-1.71-.89-3.67-1.66-5.88-2.32-2.21-.66-4.46-1.36-6.76-2.11-2.3-.75-4.55-1.62-6.76-2.6-2.2-.99-4.16-2.23-5.88-3.73-1.71-1.5-3.09-3.33-4.15-5.49s-1.58-4.79-1.58-7.88c0-2.77.57-5.42,1.73-7.95,1.15-2.53,2.81-4.76,5-6.69,2.18-1.92,4.88-3.46,8.09-4.61,3.21-1.15,6.89-1.72,11.01-1.72,4.74,0,9.02.75,12.84,2.25,3.82,1.5,7.09,3.57,9.82,6.19l-3.03,5Z"/>
    <path class="st2" d="M506.17,201.57c3-3.05,6.32-5.51,9.96-7.39,3.63-1.88,7.82-2.82,12.56-2.82,3.94,0,7.4.66,10.38,1.97,2.98,1.31,5.48,3.16,7.49,5.52,2.02,2.37,3.54,5.22,4.58,8.55,1.03,3.33,1.55,7.01,1.55,11.05v45.53h-13.79v-45.53c0-5.11-1.17-9.09-3.52-11.93s-5.94-4.26-10.77-4.26c-3.52,0-6.81.83-9.89,2.5-3.07,1.67-5.92,3.93-8.55,6.79v52.43h-13.72v-103.87h13.72v41.45Z"/>
  </g>
  <path class="st2" d="M510.24,279.19l-15.6,38.62h-6.49l-15.6-38.62h5.77c.62,0,1.13.15,1.52.45.39.3.69.69.88,1.18l9.11,23.56c.3.77.59,1.61.87,2.52s.54,1.87.79,2.87c.21-1,.44-1.95.69-2.87.25-.92.53-1.76.83-2.52l9.05-23.56c.14-.41.42-.78.84-1.12.42-.34.93-.51,1.54-.51h5.8Z"/>
  <path class="st2" d="M375.54,279.19v38.74h-6.35v-25.02c0-1,.05-2.08.16-3.24l-11.71,21.99c-.55,1.05-1.4,1.58-2.54,1.58h-1.02c-1.14,0-1.99-.53-2.54-1.58l-11.84-22.07c.05.59.1,1.17.13,1.74.04.57.05,1.1.05,1.58v25.02h-6.35v-38.74h5.44c.32,0,.6,0,.83.03.23.02.44.06.63.13.19.07.36.19.51.35s.3.37.44.64l11.6,21.51c.3.57.58,1.16.84,1.77.26.61.51,1.23.76,1.88.25-.66.51-1.3.78-1.92.27-.62.55-1.21.86-1.78l11.44-21.46c.14-.27.29-.48.46-.64.16-.16.33-.28.52-.35.19-.07.4-.12.63-.13.23-.02.51-.03.83-.03h5.44Z"/>
  <g>
    <path class="st2" d="M338.54,391.93v31.51h-5.17v-20.36c0-.81.04-1.69.13-2.64l-9.52,17.89c-.45.86-1.14,1.29-2.07,1.29h-.83c-.93,0-1.62-.43-2.07-1.29l-9.63-17.96c.04.48.08.95.11,1.42.03.46.04.89.04,1.28v20.36h-5.17v-31.51h4.42c.26,0,.49,0,.67.02.19.01.36.05.51.11.15.06.29.15.42.28.12.13.24.31.36.52l9.44,17.5c.25.46.48.94.69,1.44.21.49.42,1,.62,1.53.2-.54.41-1.06.63-1.56.22-.5.45-.98.7-1.45l9.31-17.46c.12-.22.24-.39.37-.52.13-.13.27-.22.43-.28.15-.06.32-.09.51-.11.19-.02.41-.02.68-.02h4.42Z"/>
    <path class="st2" d="M343.62,404.2c2.57-2.35,5.67-3.53,9.29-3.53,1.31,0,2.48.21,3.51.64,1.03.43,1.9,1.02,2.61,1.79.71.76,1.25,1.67,1.62,2.73.37,1.06.56,2.22.56,3.49v14.12h-2.44c-.51,0-.9-.08-1.18-.23s-.49-.46-.65-.93l-.48-1.61c-.57.51-1.12.96-1.66,1.34-.54.38-1.1.71-1.68.97-.58.26-1.2.46-1.86.6-.66.14-1.39.21-2.19.21-.94,0-1.82-.13-2.62-.38-.8-.25-1.49-.64-2.07-1.14-.58-.51-1.03-1.14-1.35-1.9-.32-.75-.48-1.63-.48-2.64,0-.57.09-1.13.28-1.69s.5-1.09.93-1.6c.43-.51.98-.99,1.67-1.44.68-.45,1.52-.84,2.52-1.18.99-.33,2.15-.61,3.48-.82,1.32-.21,2.83-.34,4.53-.38v-1.31c0-1.5-.32-2.61-.96-3.32-.64-.72-1.56-1.08-2.77-1.08-.87,0-1.59.1-2.17.31-.57.2-1.08.43-1.51.69s-.83.48-1.19.69c-.36.2-.75.31-1.19.31-.38,0-.7-.1-.96-.29-.26-.2-.47-.43-.63-.69l-.96-1.72ZM355.95,413.89c-1.56.07-2.86.21-3.92.4-1.06.2-1.91.45-2.55.75-.64.31-1.1.66-1.37,1.07-.28.41-.41.85-.41,1.33,0,.94.28,1.62.84,2.03.56.41,1.29.61,2.19.61,1.1,0,2.06-.2,2.87-.6s1.59-1.01,2.36-1.82v-3.77Z"/>
    <path class="st2" d="M372.58,394.56c0,.46-.09.9-.28,1.31s-.44.76-.75,1.07-.68.55-1.1.73c-.42.18-.87.27-1.35.27s-.9-.09-1.32-.27c-.41-.18-.77-.42-1.08-.73-.3-.31-.55-.66-.73-1.07s-.27-.84-.27-1.31.09-.93.27-1.35.43-.79.73-1.09c.31-.3.67-.55,1.08-.73.42-.18.85-.27,1.32-.27s.93.09,1.35.27.79.43,1.1.73c.31.31.56.67.75,1.09s.28.87.28,1.35ZM371.84,401.08v22.36h-5.4v-22.36h5.4Z"/>
    <path class="st2" d="M382.37,403.83c.45-.45.93-.87,1.43-1.25.5-.39,1.03-.71,1.59-.98.56-.27,1.16-.48,1.8-.63s1.34-.23,2.09-.23c1.22,0,2.3.21,3.25.62.94.41,1.73.99,2.36,1.74.63.75,1.11,1.64,1.44,2.68.33,1.04.49,2.18.49,3.43v14.23h-5.38v-14.23c0-1.37-.31-2.42-.94-3.17-.63-.75-1.58-1.12-2.86-1.12-.93,0-1.8.21-2.62.63-.81.42-1.58,1-2.31,1.72v16.17h-5.38v-22.36h3.29c.7,0,1.16.33,1.37.98l.37,1.76Z"/>
    <path class="st2" d="M411.98,404.2c2.57-2.35,5.67-3.53,9.29-3.53,1.31,0,2.48.21,3.51.64,1.03.43,1.9,1.02,2.61,1.79.71.76,1.25,1.67,1.62,2.73.37,1.06.56,2.22.56,3.49v14.12h-2.44c-.51,0-.9-.08-1.18-.23s-.49-.46-.65-.93l-.48-1.61c-.57.51-1.12.96-1.66,1.34-.54.38-1.1.71-1.68.97-.58.26-1.2.46-1.86.6-.66.14-1.39.21-2.19.21-.94,0-1.82-.13-2.62-.38s-1.49-.64-2.07-1.14c-.58-.51-1.03-1.14-1.35-1.9-.32-.75-.48-1.63-.48-2.64,0-.57.09-1.13.28-1.69s.5-1.09.93-1.6c.43-.51.98-.99,1.67-1.44.68-.45,1.52-.84,2.52-1.18.99-.33,2.15-.61,3.48-.82,1.32-.21,2.83-.34,4.53-.38v-1.31c0-1.5-.32-2.61-.96-3.32-.64-.72-1.56-1.08-2.77-1.08-.87,0-1.59.1-2.17.31-.57.2-1.08.43-1.51.69s-.83.48-1.19.69c-.36.2-.75.31-1.19.31-.38,0-.7-.1-.96-.29-.26-.2-.47-.43-.63-.69l-.96-1.72ZM418.83,391.58c.6,0,1.04.1,1.33.29.29.2.54.48.74.86l3.12,5.3h-3.07c-.41,0-.74-.05-.99-.16-.25-.11-.51-.31-.77-.6l-5.38-5.69h5.03ZM424.32,413.89c-1.56.07-2.86.21-3.92.4-1.06.2-1.91.45-2.55.75-.64.31-1.1.66-1.37,1.07-.28.41-.41.85-.41,1.33,0,.94.28,1.62.84,2.03.56.41,1.29.61,2.19.61,1.1,0,2.06-.2,2.87-.6s1.59-1.01,2.36-1.82v-3.77Z"/>
    <path class="st2" d="M480.24,391.93v31.51h-5.17v-20.36c0-.81.04-1.69.13-2.64l-9.52,17.89c-.45.86-1.14,1.29-2.07,1.29h-.83c-.93,0-1.62-.43-2.07-1.29l-9.63-17.96c.04.48.08.95.11,1.42.03.46.04.89.04,1.28v20.36h-5.17v-31.51h4.42c.26,0,.49,0,.67.02.19.01.36.05.51.11.15.06.29.15.42.28.12.13.24.31.36.52l9.44,17.5c.25.46.48.94.69,1.44.21.49.42,1,.62,1.53.2-.54.41-1.06.63-1.56.22-.5.45-.98.7-1.45l9.31-17.46c.12-.22.24-.39.37-.52.13-.13.27-.22.43-.28.15-.06.32-.09.51-.11.19-.02.41-.02.68-.02h4.42Z"/>
    <path class="st2" d="M485.32,404.2c2.57-2.35,5.67-3.53,9.29-3.53,1.31,0,2.48.21,3.51.64,1.03.43,1.9,1.02,2.61,1.79.71.76,1.25,1.67,1.62,2.73.37,1.06.56,2.22.56,3.49v14.12h-2.44c-.51,0-.9-.08-1.18-.23s-.49-.46-.65-.93l-.48-1.61c-.57.51-1.12.96-1.66,1.34-.54.38-1.1.71-1.68.97-.58.26-1.2.46-1.86.6-.66.14-1.39.21-2.19.21-.94,0-1.82-.13-2.62-.38-.8-.25-1.49-.64-2.07-1.14-.58-.51-1.03-1.14-1.35-1.9-.32-.75-.48-1.63-.48-2.64,0-.57.09-1.13.28-1.69.19-.56.5-1.09.93-1.6.43-.51.98-.99,1.67-1.44.68-.45,1.52-.84,2.52-1.18.99-.33,2.15-.61,3.48-.82,1.32-.21,2.83-.34,4.53-.38v-1.31c0-1.5-.32-2.61-.96-3.32-.64-.72-1.56-1.08-2.77-1.08-.87,0-1.59.1-2.17.31-.57.2-1.08.43-1.51.69-.44.25-.83.48-1.19.69-.36.2-.75.31-1.19.31-.38,0-.7-.1-.96-.29-.26-.2-.47-.43-.63-.69l-.96-1.72ZM497.65,413.89c-1.56.07-2.86.21-3.92.4-1.06.2-1.91.45-2.55.75-.64.31-1.1.66-1.37,1.07-.28.41-.41.85-.41,1.33,0,.94.28,1.62.84,2.03.56.41,1.29.61,2.19.61,1.1,0,2.06-.2,2.87-.6s1.59-1.01,2.36-1.82v-3.77Z"/>
    <path class="st2" d="M514.28,394.56c0,.46-.09.9-.28,1.31s-.44.76-.75,1.07-.68.55-1.1.73c-.42.18-.87.27-1.35.27s-.9-.09-1.32-.27c-.41-.18-.77-.42-1.08-.73-.3-.31-.55-.66-.73-1.07s-.27-.84-.27-1.31.09-.93.27-1.35c.18-.42.43-.79.73-1.09.31-.3.67-.55,1.08-.73.42-.18.85-.27,1.32-.27s.93.09,1.35.27.79.43,1.1.73c.31.31.56.67.75,1.09s.28.87.28,1.35ZM513.54,401.08v22.36h-5.4v-22.36h5.4Z"/>
    <path class="st2" d="M524.07,403.83c.45-.45.93-.87,1.43-1.25.5-.39,1.03-.71,1.59-.98.56-.27,1.16-.48,1.8-.63.64-.15,1.34-.23,2.09-.23,1.22,0,2.3.21,3.25.62.94.41,1.73.99,2.36,1.74.63.75,1.11,1.64,1.44,2.68.33,1.04.49,2.18.49,3.43v14.23h-5.38v-14.23c0-1.37-.31-2.42-.94-3.17-.63-.75-1.58-1.12-2.86-1.12-.93,0-1.8.21-2.62.63-.81.42-1.58,1-2.31,1.72v16.17h-5.38v-22.36h3.29c.7,0,1.16.33,1.37.98l.37,1.76Z"/>
  </g>
  <path class="st2" d="M526.07,129.69h-210.24c-29.86,0-54.06,24.18-54.06,54.04v227.81c0,29.86,24.2,54.04,54.06,54.04h210.24c29.84,0,54.04-24.18,54.04-54.04v-227.81c0-29.86-24.2-54.04-54.04-54.04ZM565.83,401.33c0,29.54-23.97,53.51-53.51,53.51h-182.73c-29.56,0-53.53-23.97-53.53-53.51v-207.38c0-29.54,23.97-53.51,53.53-53.51h182.73c29.54,0,53.51,23.97,53.51,53.51v207.38Z"/>
</svg>